<svg id="visual" viewBox="0 0 900 600" width="900" height="600" xmlns="http://www.w3.org/2000/svg" xmlns:xlink="http://www.w3.org/1999/xlink" version="1.1"><rect x="0" y="0" width="900" height="600" fill="#000000"></rect><path d="M0 62L13.7 78.7C27.3 95.3 54.7 128.7 82 127.3C109.3 126 136.7 90 163.8 71C191 52 218 50 245.2 70C272.3 90 299.7 132 327 151.3C354.3 170.7 381.7 167.3 409 164.5C436.3 161.7 463.7 159.3 491 159.5C518.3 159.7 545.7 162.3 573 153.8C600.3 145.3 627.7 125.7 654.8 119.8C682 114 709 122 736.2 134.5C763.3 147 790.7 164 818 170.8C845.3 177.7 872.7 174.3 886.3 172.7L900 171L900 0L886.3 0C872.7 0 845.3 0 818 0C790.7 0 763.3 0 736.2 0C709 0 682 0 654.8 0C627.7 0 600.3 0 573 0C545.7 0 518.3 0 491 0C463.7 0 436.3 0 409 0C381.7 0 354.3 0 327 0C299.7 0 272.3 0 245.2 0C218 0 191 0 163.8 0C136.7 0 109.3 0 82 0C54.7 0 27.3 0 13.7 0L0 0Z" fill="#FFFFFF" stroke-linecap="round" stroke-linejoin="miter"></path></svg>