<svg id="visual" viewBox="0 0 900 600" width="900" height="600" xmlns="http://www.w3.org/2000/svg" xmlns:xlink="http://www.w3.org/1999/xlink" version="1.1"><path d="M0 35L18.8 44.8C37.7 54.7 75.3 74.3 112.8 71.5C150.3 68.7 187.7 43.3 225.2 37.8C262.7 32.3 300.3 46.7 337.8 56.5C375.3 66.3 412.7 71.7 450.2 71.5C487.7 71.3 525.3 65.7 562.8 60.3C600.3 55 637.7 50 675.2 43.5C712.7 37 750.3 29 787.8 27.5C825.3 26 862.7 31 881.3 33.5L900 36L900 0L881.3 0C862.7 0 825.3 0 787.8 0C750.3 0 712.7 0 675.2 0C637.7 0 600.3 0 562.8 0C525.3 0 487.7 0 450.2 0C412.7 0 375.3 0 337.8 0C300.3 0 262.7 0 225.2 0C187.7 0 150.3 0 112.8 0C75.3 0 37.7 0 18.8 0L0 0Z" fill="#000000" stroke-linecap="round" stroke-linejoin="miter"></path></svg>