<svg xmlns="http://www.w3.org/2000/svg" version="1.1" xmlns:xlink="http://www.w3.org/1999/xlink" xmlns:svgjs="http://svgjs.dev/svgjs" width="1440" height="560" preserveAspectRatio="none" viewBox="0 0 1440 560">
    <g mask="url(&quot;#SvgjsMask1384&quot;)" fill="none">
        <rect width="1440" height="560" x="0" y="0" fill="url(&quot;#SvgjsLinearGradient1385&quot;)"></rect>
        <path d="M 0,34 C 57.6,79.2 172.8,244.6 288,260 C 403.2,275.4 460.8,129.4 576,111 C 691.2,92.6 748.8,168.8 864,168 C 979.2,167.2 1036.8,91.8 1152,107 C 1267.2,122.2 1382.4,216.6 1440,244L1440 560L0 560z" fill="rgba(190, 88, 24, 0.33)"></path>
        <path d="M 0,454 C 41.2,445.6 123.6,406.4 206,412 C 288.4,417.6 329.6,489.2 412,482 C 494.4,474.8 535.6,377 618,376 C 700.4,375 741.6,486.2 824,477 C 906.4,467.8 947.6,334.2 1030,330 C 1112.4,325.8 1154,465.2 1236,456 C 1318,446.8 1399.2,318.4 1440,284L1440 560L0 560z" fill="rgba(255, 98, 0, 1)"></path>
    </g>
    <defs>
        <mask id="SvgjsMask1384">
            <rect width="1440" height="560" fill="#ffffff"></rect>
        </mask>
        <linearGradient x1="50%" y1="0%" x2="50%" y2="100%" gradientUnits="userSpaceOnUse" id="SvgjsLinearGradient1385">
            <stop stop-color="#0e2a47" offset="0"></stop>
            <stop stop-color="rgba(255, 98, 0, 1)" offset="1"></stop>
        </linearGradient>
    </defs>
</svg>