<svg id="visual" viewBox="0 0 900 600" width="900" height="600" xmlns="http://www.w3.org/2000/svg" xmlns:xlink="http://www.w3.org/1999/xlink" version="1.1"><rect x="0" y="0" width="900" height="600" fill="#ff6200"></rect><defs><linearGradient id="grad1_0" x1="33.3%" y1="0%" x2="100%" y2="100%"><stop offset="20%" stop-color="#ffffff" stop-opacity="1"></stop><stop offset="80%" stop-color="#ffffff" stop-opacity="1"></stop></linearGradient></defs><defs><linearGradient id="grad1_1" x1="33.3%" y1="0%" x2="100%" y2="100%"><stop offset="20%" stop-color="#ffffff" stop-opacity="1"></stop><stop offset="80%" stop-color="#ffccaf" stop-opacity="1"></stop></linearGradient></defs><defs><linearGradient id="grad1_2" x1="33.3%" y1="0%" x2="100%" y2="100%"><stop offset="20%" stop-color="#ff9961" stop-opacity="1"></stop><stop offset="80%" stop-color="#ffccaf" stop-opacity="1"></stop></linearGradient></defs><defs><linearGradient id="grad1_3" x1="33.3%" y1="0%" x2="100%" y2="100%"><stop offset="20%" stop-color="#ff9961" stop-opacity="1"></stop><stop offset="80%" stop-color="#ff6200" stop-opacity="1"></stop></linearGradient></defs><defs><linearGradient id="grad2_0" x1="0%" y1="0%" x2="66.7%" y2="100%"><stop offset="20%" stop-color="#ffffff" stop-opacity="1"></stop><stop offset="80%" stop-color="#ffffff" stop-opacity="1"></stop></linearGradient></defs><defs><linearGradient id="grad2_1" x1="0%" y1="0%" x2="66.7%" y2="100%"><stop offset="20%" stop-color="#ffccaf" stop-opacity="1"></stop><stop offset="80%" stop-color="#ffffff" stop-opacity="1"></stop></linearGradient></defs><defs><linearGradient id="grad2_2" x1="0%" y1="0%" x2="66.7%" y2="100%"><stop offset="20%" stop-color="#ffccaf" stop-opacity="1"></stop><stop offset="80%" stop-color="#ff9961" stop-opacity="1"></stop></linearGradient></defs><defs><linearGradient id="grad2_3" x1="0%" y1="0%" x2="66.7%" y2="100%"><stop offset="20%" stop-color="#ff6200" stop-opacity="1"></stop><stop offset="80%" stop-color="#ff9961" stop-opacity="1"></stop></linearGradient></defs><g transform="translate(900, 0)"><path d="M0 486.7C-51.4 476.5 -102.8 466.2 -144.3 444.1C-185.8 422 -217.3 388.1 -264.5 364.1C-311.7 340 -374.6 325.9 -393.8 286.1C-413 246.3 -388.4 180.8 -396.6 128.9C-404.8 76.9 -445.8 38.4 -486.7 0L0 0Z" fill="#ff7f3a"></path><path d="M0 365.1C-38.6 357.4 -77.1 349.7 -108.2 333.1C-139.3 316.5 -163 291.1 -198.4 273C-233.8 255 -281 244.4 -295.3 214.6C-309.7 184.7 -291.3 135.6 -297.4 96.6C-303.6 57.7 -334.3 28.8 -365.1 0L0 0Z" fill="#ffb388"></path><path d="M0 243.4C-25.7 238.2 -51.4 233.1 -72.2 222.1C-92.9 211 -108.6 194 -132.3 182C-155.9 170 -187.3 163 -196.9 143.1C-206.5 123.2 -194.2 90.4 -198.3 64.4C-202.4 38.4 -222.9 19.2 -243.4 0L0 0Z" fill="#ffe6d6"></path><path d="M0 121.7C-12.9 119.1 -25.7 116.6 -36.1 111C-46.4 105.5 -54.3 97 -66.1 91C-77.9 85 -93.7 81.5 -98.4 71.5C-103.2 61.6 -97.1 45.2 -99.1 32.2C-101.2 19.2 -111.4 9.6 -121.7 0L0 0Z" fill="#ffffff"></path></g><g transform="translate(0, 600)"><path d="M0 -486.7C54.6 -488.4 109.3 -490 150.4 -462.9C191.6 -435.8 219.3 -379.9 246.9 -339.8C274.5 -299.7 302 -275.3 341.4 -248C380.8 -220.8 432.2 -190.8 458.4 -148.9C484.6 -107.1 485.7 -53.6 486.7 0L0 0Z" fill="#ff7f3a"></path><path d="M0 -365.1C41 -366.3 81.9 -367.5 112.8 -347.2C143.7 -326.9 164.5 -284.9 185.2 -254.8C205.9 -224.7 226.5 -206.5 256.1 -186C285.6 -165.6 324.1 -143.1 343.8 -111.7C363.5 -80.3 364.3 -40.2 365.1 0L0 0Z" fill="#ffb388"></path><path d="M0 -243.4C27.3 -244.2 54.6 -245 75.2 -231.5C95.8 -217.9 109.6 -190 123.4 -169.9C137.2 -149.8 151 -137.6 170.7 -124C190.4 -110.4 216.1 -95.4 229.2 -74.5C242.3 -53.6 242.8 -26.8 243.4 0L0 0Z" fill="#ffe6d6"></path><path d="M0 -121.7C13.7 -122.1 27.3 -122.5 37.6 -115.7C47.9 -109 54.8 -95 61.7 -84.9C68.6 -74.9 75.5 -68.8 85.4 -62C95.2 -55.2 108 -47.7 114.6 -37.2C121.2 -26.8 121.4 -13.4 121.7 0L0 0Z" fill="#ffffff"></path></g></svg>