<svg id="visual" viewBox="0 0 900 600" width="900" height="600" xmlns="http://www.w3.org/2000/svg" xmlns:xlink="http://www.w3.org/1999/xlink" version="1.1"><rect x="0" y="0" width="900" height="600" fill="#ffffff"></rect><path d="M0 135L12.5 143.3C25 151.7 50 168.3 75 168C100 167.7 125 150.3 150 147.7C175 145 200 157 225 156.7C250 156.3 275 143.7 300 146.8C325 150 350 169 375 175.5C400 182 425 176 450 167.8C475 159.7 500 149.3 525 145.3C550 141.3 575 143.7 600 150.2C625 156.7 650 167.3 675 164.3C700 161.3 725 144.7 750 140C775 135.3 800 142.7 825 147.5C850 152.3 875 154.7 887.5 155.8L900 157L900 0L887.5 0C875 0 850 0 825 0C800 0 775 0 750 0C725 0 700 0 675 0C650 0 625 0 600 0C575 0 550 0 525 0C500 0 475 0 450 0C425 0 400 0 375 0C350 0 325 0 300 0C275 0 250 0 225 0C200 0 175 0 150 0C125 0 100 0 75 0C50 0 25 0 12.5 0L0 0Z" fill="#ffd9c2"></path><path d="M0 152L12.5 145.8C25 139.7 50 127.3 75 126.5C100 125.7 125 136.3 150 141.3C175 146.3 200 145.7 225 138.5C250 131.3 275 117.7 300 116.7C325 115.7 350 127.3 375 133.5C400 139.7 425 140.3 450 138C475 135.7 500 130.3 525 131.3C550 132.3 575 139.7 600 138C625 136.3 650 125.7 675 120.5C700 115.3 725 115.7 750 118.2C775 120.7 800 125.3 825 128C850 130.7 875 131.3 887.5 131.7L900 132L900 0L887.5 0C875 0 850 0 825 0C800 0 775 0 750 0C725 0 700 0 675 0C650 0 625 0 600 0C575 0 550 0 525 0C500 0 475 0 450 0C425 0 400 0 375 0C350 0 325 0 300 0C275 0 250 0 225 0C200 0 175 0 150 0C125 0 100 0 75 0C50 0 25 0 12.5 0L0 0Z" fill="#ffb388"></path><path d="M0 94L12.5 92.7C25 91.3 50 88.7 75 87C100 85.3 125 84.7 150 83C175 81.3 200 78.7 225 81.3C250 84 275 92 300 98.5C325 105 350 110 375 113.7C400 117.3 425 119.7 450 114C475 108.3 500 94.7 525 94.7C550 94.7 575 108.3 600 115.2C625 122 650 122 675 121.3C700 120.7 725 119.3 750 117.5C775 115.7 800 113.3 825 109C850 104.7 875 98.3 887.5 95.2L900 92L900 0L887.5 0C875 0 850 0 825 0C800 0 775 0 750 0C725 0 700 0 675 0C650 0 625 0 600 0C575 0 550 0 525 0C500 0 475 0 450 0C425 0 400 0 375 0C350 0 325 0 300 0C275 0 250 0 225 0C200 0 175 0 150 0C125 0 100 0 75 0C50 0 25 0 12.5 0L0 0Z" fill="#ff8d4d"></path><path d="M0 64L12.5 64.5C25 65 50 66 75 64.7C100 63.3 125 59.7 150 58.7C175 57.7 200 59.3 225 63C250 66.7 275 72.3 300 71.3C325 70.3 350 62.7 375 63.2C400 63.7 425 72.3 450 74.2C475 76 500 71 525 72C550 73 575 80 600 83.5C625 87 650 87 675 86.7C700 86.3 725 85.7 750 82C775 78.3 800 71.7 825 72.2C850 72.7 875 80.3 887.5 84.2L900 88L900 0L887.5 0C875 0 850 0 825 0C800 0 775 0 750 0C725 0 700 0 675 0C650 0 625 0 600 0C575 0 550 0 525 0C500 0 475 0 450 0C425 0 400 0 375 0C350 0 325 0 300 0C275 0 250 0 225 0C200 0 175 0 150 0C125 0 100 0 75 0C50 0 25 0 12.5 0L0 0Z" fill="#ff6200"></path><path d="M0 46L12.5 45.5C25 45 50 44 75 42.5C100 41 125 39 150 39.7C175 40.3 200 43.7 225 46.3C250 49 275 51 300 52.2C325 53.3 350 53.7 375 53.8C400 54 425 54 450 51C475 48 500 42 525 40.7C550 39.3 575 42.7 600 45.3C625 48 650 50 675 51.5C700 53 725 54 750 53.2C775 52.3 800 49.7 825 48.8C850 48 875 49 887.5 49.5L900 50L900 0L887.5 0C875 0 850 0 825 0C800 0 775 0 750 0C725 0 700 0 675 0C650 0 625 0 600 0C575 0 550 0 525 0C500 0 475 0 450 0C425 0 400 0 375 0C350 0 325 0 300 0C275 0 250 0 225 0C200 0 175 0 150 0C125 0 100 0 75 0C50 0 25 0 12.5 0L0 0Z" fill="#000000"></path></svg>